<?xml version="1.0" standalone="no"?>
<!DOCTYPE svg PUBLIC "-//W3C//DTD SVG 1.1//EN" "http://www.w3.org/Graphics/SVG/1.1/DTD/svg11.dtd" >
<!--
2013-9-30: Created.
-->
<svg>
<metadata>
Created by iconfont
</metadata>
<defs>

<font id="iconfont" horiz-adv-x="1024" >
  <font-face
    font-family="iconfont"
    font-weight="500"
    font-stretch="normal"
    units-per-em="1024"
    ascent="896"
    descent="-128"
  />
    <missing-glyph />
    
    <glyph glyph-name="x" unicode="x" horiz-adv-x="1001"
d="M281 543q-27 -1 -53 -1h-83q-18 0 -36.5 -6t-32.5 -18.5t-23 -32t-9 -45.5v-76h912v41q0 16 -0.5 30t-0.5 18q0 13 -5 29t-17 29.5t-31.5 22.5t-49.5 9h-133v-97h-438v97zM955 310v-52q0 -23 0.5 -52t0.5 -58t-10.5 -47.5t-26 -30t-33 -16t-31.5 -4.5q-14 -1 -29.5 -0.5
t-29.5 0.5h-32l-45 128h-439l-44 -128h-29h-34q-20 0 -45 1q-25 0 -41 9.5t-25.5 23t-13.5 29.5t-4 30v167h911zM163 247q-12 0 -21 -8.5t-9 -21.5t9 -21.5t21 -8.5q13 0 22 8.5t9 21.5t-9 21.5t-22 8.5zM316 123q-8 -26 -14 -48q-5 -19 -10.5 -37t-7.5 -25t-3 -15t1 -14.5
t9.5 -10.5t21.5 -4h37h67h81h80h64h36q23 0 34 12t2 38q-5 13 -9.5 30.5t-9.5 34.5q-5 19 -11 39h-368zM336 498v228q0 11 2.5 23t10 21.5t20.5 15.5t34 6h188q31 0 51.5 -14.5t20.5 -52.5v-227h-327z" />
    

    
    <glyph glyph-name="icon" unicode="&#58881;" d="M258.322127 341.902493l520.562697 0 0-64.94023-520.562697 0 0 64.94023Z"  horiz-adv-x="1024" />

    
    <glyph glyph-name="shouji" unicode="&#59730;" d="M661.333333 853.333333l-341.333333 0C261.12 853.333333 213.333333 805.546667 213.333333 746.666667l0-725.333333C213.333333-37.546667 261.12-85.333333 320-85.333333l341.333333 0c58.88 0 106.666667 47.786667 106.666667 106.666667l0 725.333333C768 805.546667 720.213333 853.333333 661.333333 853.333333zM490.666667-42.666667c-35.413333 0-64 28.586667-64 64s28.586667 64 64 64 64-28.586667 64-64S526.08-42.666667 490.666667-42.666667zM682.666667 128 298.666667 128 298.666667 725.333333l384 0L682.666667 128z"  horiz-adv-x="1024" />

    
    <glyph glyph-name="erweima" unicode="&#58880;" d="M62.996776 411.938306l423.162696 0L486.159472 835.099978 62.996776 835.099978 62.996776 411.938306zM168.788218 729.30956l211.580836 0 0-211.580836L168.788218 517.728724 168.788218 729.30956zM539.055193 835.099978l0-423.162696 423.162696 0L962.217888 835.099978 539.055193 835.099978zM856.426447 517.728724 644.845611 517.728724 644.845611 729.30956l211.580836 0L856.426447 517.728724zM221.682915 570.623421l105.790418 0L327.473333 676.414863 221.682915 676.414863 221.682915 570.623421zM62.996776-64.120111l423.162696 0L486.159472 359.042585 62.996776 359.042585 62.996776-64.120111zM168.788218 253.252167l211.580836 0 0-211.580836L168.788218 41.671331 168.788218 253.252167zM803.531749 676.414863 697.740308 676.414863l0-105.790418 105.790418 0L803.530726 676.414863zM539.055193-64.120111l105.790418 0L644.845611 41.670308 539.055193 41.670308 539.055193-64.120111zM644.845611 253.252167l0-211.580836 105.790418 0L750.636029 253.252167 644.845611 253.252167zM856.426447 41.670308 750.636029 41.670308 750.636029-64.120111l211.580836 0L962.216865 147.461749 856.426447 147.461749 856.426447 41.670308zM856.426447 253.252167l105.790418 0L962.216865 359.042585 856.426447 359.042585 856.426447 253.252167zM539.055193 359.042585l0-105.790418 105.790418 0L644.845611 359.042585 539.055193 359.042585zM221.682915 94.566028l105.790418 0L327.473333 200.356446 221.682915 200.356446 221.682915 94.566028z"  horiz-adv-x="1024" />

    
    <glyph glyph-name="weibo" unicode="&#58885;" d="M769.68692 405.63474c-14.390755 4.341888-24.252357 7.297197-16.71673 26.348088 16.311501 41.336454 18.014282 77.016071 0.304945 102.44523-33.164331 47.743374-123.94694 45.161572-227.989551 1.304715 0 0.049119-32.66598-14.403035-24.326035 11.701506 16.011672 51.80897 13.596669 95.204315-11.308557 120.266108-56.450686 56.874335-206.564589-2.14485-335.283206-131.750673-96.395444-97.099479-152.378479-199.988824-152.378479-288.961204 0-170.199357 216.72602-273.681196 428.740738-273.681196 277.94736 0 462.836277 162.613588 462.836277 291.750737C893.565299 343.053426 828.313156 387.333932 769.68692 405.63474L769.68692 405.63474 769.68692 405.63474zM431.29798 34.317852c-169.189354-16.815991-315.224358 60.199057-326.214666 172.057681-10.983145 111.840204 117.304659 216.150922 286.462291 232.998635 169.20061 16.841573 315.254034-60.162218 326.213643-171.989119C728.717833 155.476283 600.517009 51.171706 431.29798 34.317852L431.29798 34.317852 431.29798 34.317852zM954.257589 717.090261c-67.12377 74.944899-166.133761 103.518678-257.500679 83.944877l-0.056282 0c-21.140483-4.558829-34.619472-25.497721-30.090319-46.756907 4.50971-21.282722 25.300222-34.874275 46.451962-30.332842 65.001433 13.897521 135.367037-6.430456 183.072549-59.655681 47.686069-53.244668 60.623729-125.856429 40.207747-189.504028l0.013303-0.01228c-6.649444-20.739347 4.607948-42.908252 25.229614-49.612954 20.516266-6.687306 42.590004 4.627391 49.25889 25.311479l0.019443 0.150426C1039.498996 540.172899 1021.397732 642.213923 954.257589 717.090261M851.180979 623.420905c-32.659841 36.495192-80.901565 50.355875-125.431757 40.830941-18.206664-3.917216-29.78435-21.949918-25.904996-40.287565 3.90596-18.271132 21.801539-30.009478 39.952944-26.0237l0-0.049119c21.769816 4.640694 45.378513-2.116197 61.333904-19.929912 15.994276-17.84646 20.297278-42.165332 13.44215-63.504336l0.031722 0c-5.709025-17.802458 3.966335-36.951587 21.668509-42.72815 17.715477-5.706979 36.688597 4.022617 42.397622 21.868053C892.672976 537.215544 883.928824 586.929806 851.180979 623.420905M448.201975 353.289558c-80.508615 21.089317-171.490769-19.317974-206.464305-90.750887-35.617196-72.861448-1.186012-153.738453 80.158644-180.179662 84.244706-27.358091 183.559643 14.570857 218.09725 93.215008C574.037938 252.440685 531.516496 331.607746 448.201975 353.289558L448.201975 353.289558 448.201975 353.289558zM386.728902 167.234071c-16.367783-26.297946-51.41602-37.823444-77.799924-25.686009-26.016537 11.920494-33.689287 42.452881-17.328667 68.103074 16.168238 25.536606 50.037626 36.901445 76.229149 25.841551C394.33309 224.107383 402.797879 193.774541 386.728902 167.234071L386.728902 167.234071 386.728902 167.234071zM440.640766 236.90792c-5.925966-10.18599-19.005866-15.09479-29.254278-10.840906-10.07445 4.16588-13.229303 15.568581-7.503904 25.580608 5.894244 9.960863 18.46249 14.807241 28.511357 10.789741C442.6137 258.690016 446.286346 247.156332 440.640766 236.90792L440.640766 236.90792 440.640766 236.90792zM440.640766 236.90792"  horiz-adv-x="1040" />

    
    <glyph glyph-name="down-copy-copy" unicode="&#58902;" d="M726.756 310.858l-419.644 0.156 210.028 239.551 209.617-239.707z"  horiz-adv-x="1024" />

    
    <glyph glyph-name="fuwu" unicode="&#58978;" d="M327.69701 844.8h386.976744c135.994684 0 246.219269-110.224585 246.219269-246.219269v-386.976744c0-135.994684-110.224585-246.219269-246.219269-246.219269h-386.976744c-135.994684 0-246.219269 110.224585-246.219269 246.219269v386.976744C81.392691 734.490365 191.702326 844.8 327.69701 844.8zM505.196013 555.375415c0-43.120266-34.104983-78.075748-76.204651-78.075747s-76.204651 34.955482-76.204651 78.075747c0 43.120266 34.104983 78.075748 76.204651 78.075748 42.014618 0 76.204651-34.955482 76.204651-78.075748z m-177.328903-103.760797v-277.517608h207.351495V339.348837l56.728239-67.359468s24.409302-14.288372 42.354817 5.10299l65.998671 93.980066s26.790698 13.607973 31.04319 14.288372c3.146844 0.510299 50.94485 10.12093 47.968106 26.450499l-116.433223 0.08505-51.0299-63.277077L544.999336 443.534884s-27.896346 11.906977-63.787376 7.824584l-50.519601-212.879734h-2.976744l-58.089037 214.92093-41.759468-1.786046z m390.378737 60.980731s-57.663787 34.360133-57.663787-5.10299 58.429236-71.44186 58.429236-71.441861 58.429236 31.978738 58.429236 71.441861c0.08505 39.463123-59.194684 5.10299-59.194685 5.10299z"  horiz-adv-x="1024" />

    
    <glyph glyph-name="Take_delivery_of_goods" unicode="&#58929;" d="M116.97 676.682c-16.685 50.572 10.837 105.101 61.409 121.786 50.572 16.685 105.101-10.837 121.786-61.409l189.56-574.527c-17.717 4.644-36.467 5.504-55.217 2.064l-183.367 556.294c-7.741 23.394-33.027 36.123-56.421 28.382-23.394-7.741-36.123-33.027-28.382-56.421 4.472-13.589-2.924-28.21-16.513-32.683-13.589-4.472-28.382 2.924-32.855 16.513zM863.855 225.833l-310.657-102.52c11.009-12.557 19.782-27.35 25.286-44.208 0.172-0.688 0.344-1.204 0.516-1.72l301.025 99.252c13.589 4.472 20.986 19.094 16.513 32.683-4.472 13.761-19.094 20.986-32.683 16.513zM554.057 71.192c17.545-53.324-11.353-110.777-64.677-128.495-53.324-17.545-110.777 11.353-128.495 64.677-17.545 53.324 11.353 110.777 64.677 128.495 53.324 17.545 110.949-11.353 128.495-64.677zM505.721 55.195c-8.773 26.662-37.499 41.111-64.161 32.339-26.662-8.773-41.111-37.499-32.339-64.161 8.773-26.662 37.499-41.111 64.161-32.339 26.662 8.773 41.111 37.499 32.339 64.161zM785.416 615.617c-2.236 6.709-9.633 10.493-16.341 8.257l-331.815-109.573c-6.881-2.236-10.493-9.633-8.257-16.341l105.445-319.602c2.236-6.709 9.633-10.493 16.341-8.257l331.815 109.573c6.709 2.236 10.493 9.633 8.257 16.341l-105.445 319.602zM741.553 430.014l-18.922-34.403-48.852 26.834 41.971-127.29-40.079-13.245-42.143 127.29-23.222-50.572-35.607 16.341 53.84 117.142 113.013-62.097zM642.989 620.605l-67.43 204.353c-1.376 4.3-6.020 6.709-10.493 5.332l-57.797-19.094-0.344-0.516-0.516 0.344-30.446-10.149 25.114-76.030-34.403-11.353-25.114 76.030-30.446-10.149-0.172-0.516-0.516 0.172-57.453-18.922c-4.3-1.376-6.709-6.020-5.332-10.493l67.43-204.353c1.376-4.3 6.193-6.709 10.493-5.332l212.265 70.010c4.128 1.72 6.537 6.365 5.16 10.665z"  horiz-adv-x="1024" />

    
    <glyph glyph-name="shouhou" unicode="&#58889;" d="M512 0.5632A332.032 332.032 0 1 0 844.032 332.8 332.3904 332.3904 0 0 0 512 0.5632z m0 616.96A284.8768 284.8768 0 1 1 796.8768 332.8 285.2352 285.2352 0 0 1 512 617.5232z m411.2896-411.3408a49.3568 49.3568 0 0 0-49.3056 49.3056V409.6a49.3056 49.3056 0 0 0 46.3872 48.9472h2.2528v2.2016a411.0336 411.0336 0 0 1-820.736 0v-2.2016h2.2528a49.2544 49.2544 0 0 0 46.08-48.9472v-154.2656a49.3568 49.3568 0 0 0-49.2544-49.3056h-51.2A49.3568 49.3568 0 0 0 0 255.488V409.6a49.3568 49.3568 0 0 0 49.2544 49.2544h4.5568V460.8a458.5472 458.5472 0 0 0 915.9168 0v-1.9456h4.608a49.408 49.408 0 0 0 49.3056-49.3056v-154.2656a49.3568 49.3568 0 0 0-49.3056-49.2544h-51.2z m-2.0992 47.1552h55.6544v158.72h-55.6544v-158.72z m-874.0352 0h55.6544v158.72H47.104v-158.72z m261.12-334.1824h407.04V-128h-407.04v47.1552z"  horiz-adv-x="1024" />

    
    <glyph glyph-name="hp-6vip-on" unicode="&#58634;" d="M63.904 552.893l2.865 8.084c7.368 22.001 26.605 36.736 50.039 38.373 21.387 1.535 42.773-10.949 52.801-30.596 10.233-20.056 7.368-43.694-7.47-61.295-1.74-1.944-3.479-3.888-5.423-6.14 41.443-25.377 82.681-50.448 123.715-75.723 15.554-9.619 31.21-19.238 46.764-28.55 8.903-5.219 15.759-3.684 20.568 5.014 47.173 85.956 94.347 172.014 141.929 258.891-20.568 10.437-33.871 26.401-35.099 50.039-0.819 16.577 5.014 30.801 16.782 42.364 23.331 22.717 61.602 20.568 82.067-4.605 23.536-28.857 15.042-62.625-22.308-88.002 12.177-22.308 24.456-44.717 36.838-67.025 34.28-62.42 68.355-124.636 102.635-187.056 7.879-14.428 12.893-15.759 27.015-7.368 53.006 32.336 105.91 64.876 158.916 97.314 2.456 1.535 4.809 3.070 7.675 4.809-10.949 10.949-17.907 23.331-18.726 38.578-1.535 28.55 18.112 53.518 45.638 58.225 28.652 5.014 55.257-11.358 63.751-39.089 0.614-2.149 1.535-4.4 2.354-6.549v-19.238c-9.005-28.857-27.526-45.638-59.35-45.843-1.126-3.275-2.354-6.549-3.275-9.824-31.005-106.319-62.011-212.843-93.016-319.162-3.991-13.917-8.903-17.498-22.922-17.498l-535.484 0c-15.042 0-19.647 3.479-23.74 17.498-25.275 86.263-50.243 172.833-75.518 259.095-6.754 23.331-13.712 46.662-20.568 70.095-23.74 0-41.648 9.414-52.801 29.88-2.661 5.014-4.4 10.642-6.549 15.963-0.102 6.651-0.102 12.996-0.102 19.34v0 0zM510.363 85.355h250.193c22.308 0 40.113-15.759 42.569-36.941 2.456-21.387-11.563-40.829-33.154-45.638-3.070-0.819-6.344-0.921-9.414-0.921l-500.59 0c-19.033 0-35.099 11.358-40.624 28.55-5.73 17.191-0.409 36.634 14.838 46.457 7.879 5.014 18.317 8.493 27.526 8.493 82.988 0.409 165.874 0 248.658 0v0 0 0zM510.363 85.355z"  horiz-adv-x="1024" />

    
    <glyph glyph-name="pinzhibaozhang" unicode="&#58906;" d="M512-108.608c-264 0-478.72 214.72-478.72 478.72S248 848.832 512 848.832s478.72-214.72 478.72-478.72-214.72-478.72-478.72-478.72zM512 823.168c-249.856 0-453.12-203.264-453.12-453.12s203.264-453.12 453.12-453.12 453.12 203.264 453.12 453.12-203.264 453.12-453.12 453.12zM512 81.408a18.624 18.624 0 0 0-6.72 1.216c-61.376 23.04-126.528 63.232-169.92 104.96-46.528 44.672-63.744 277.632-66.688 323.84a19.2 19.2 0 1 0 38.272 2.496c7.04-108.8 28.736-273.408 54.976-298.624 37.696-36.224 96-72.704 150.08-94.144 54.08 21.44 112.32 57.856 150.144 94.144 24.832 23.808 45.568 172.16 53.696 280.256C636.48 508.096 543.808 566.848 512 588.416c-23.808-16.128-81.856-53.184-142.72-76.032a19.136 19.136 0 0 0-24.704 11.2 19.136 19.136 0 0 0 11.2 24.768c72.832 27.328 144.32 78.464 145.024 78.976a19.328 19.328 0 0 0 22.464 0c1.28-0.896 126.976-90.688 214.08-95.552 5.12-0.256 9.856-2.624 13.312-6.4 3.392-3.84 5.12-8.896 4.8-14.016-3.008-46.208-20.224-279.168-66.688-323.776-43.584-41.728-108.672-81.92-169.984-105.024a20.672 20.672 0 0 0-6.784-1.152zM470.272 255.296a19.2 19.2 0 0 0-13.312 5.312L371.84 342.336a19.2 19.2 0 0 0 26.56 27.712l71.872-68.864 150.08 145.28a19.2 19.2 0 0 0 26.688-27.584L483.648 260.672a19.52 19.52 0 0 0-13.376-5.376zM512-115.008c-267.52 0-485.12 217.6-485.12 485.12S244.48 855.232 512 855.232s485.12-217.6 485.12-485.12a485.76 485.76 0 0 0-115.584-314.304 19.2 19.2 0 0 0-29.248 24.896 447.168 447.168 0 0 1 106.432 289.408c0 246.336-200.448 446.72-446.72 446.72s-446.72-200.384-446.72-446.72A447.232 447.232 0 0 1 512-76.608a446.4 446.4 0 0 1 232.128 64.96 19.072 19.072 0 0 0 26.368-6.4 19.072 19.072 0 0 0-6.4-26.368A483.584 483.584 0 0 0 512-115.008zM871.168 72.32m-32.704 0a32.704 32.704 0 1 1 65.408 0 32.704 32.704 0 1 1-65.408 0Z"  horiz-adv-x="1024" />

    
    <glyph glyph-name="dianhua" unicode="&#59012;" d="M612.57 876.986a45.57 45.57 0 0 1-7.57 0.934c-22.649 0.867-42.47-14.62-47.033-36.866-2.514-12.072-0.173-24.412 6.636-34.749 6.785-10.325 17.183-17.38 29.267-19.844 97.276-20.08 181.025-76.94 235.798-160.106 54.755-83.2 73.843-182.582 53.825-279.853-2.514-12.112-0.174-24.425 6.635-34.739 6.787-10.324 17.19-17.368 29.274-19.865a51.61 51.61 0 0 1 7.587-0.93c9.692-0.369 19.066 2.267 27.173 7.592 10.32 6.798 17.374 17.207 19.866 29.28 51.699 251.039-110.43 497.408-361.457 549.146z m79.578-694.31c2.732-1.785 63.732-40.946 110.597-89.083 17.65-18.21 47.209-48.675 46.43-84.018-0.66-24.144-14.284-48.356-41.67-73.917-6.808-6.685-67.807-63.658-165.397-63.658-26.732 0-54.19 4.244-81.626 12.598-28.827 8.736-58.144 22.236-87.048 40.053-114.113 67.398-202.185 154.176-285.811 281.46C43.878 424.868 39.751 612.226 40.413 647.536 40.652 810.494 176.374 874.595 191.845 881.38 213.134 891.253 231.736 896 248.869 896c8.203 0 16.064-1.108 23.332-3.331 14.967-4.541 35.74-16.305 49.7-46.548 19.042-41.037 37.056-99.863 49.358-161.45 12.939-63.915-22.897-81.856-57.557-99.197l-1.371-0.6s-61.318-25.582-72.101-30.022c-10.595-4.418-16.116-16.356-12.498-27.268 24.726-74.914 62.488-152.598 109.157-224.65 45.914-70.905 100.519-136.332 157.879-189.302 4.104-3.734 9.373-5.834 14.945-5.834l1.875 0.1c6.03 0.487 11.72 3.54 15.505 8.394 9.321 11.988 23.623 29.256 38.712 43.625 28.607 27.2 54.482 40.41 79.085 40.41 6.737 0 13.427-0.991 19.873-2.958 6.17-1.892 16.153-7.261 27.385-14.692zM498.043 498.015c-12.11 2.514-22.509 9.54-29.296 19.854-6.836 10.325-9.177 22.678-6.686 34.783 4.638 22.224 24.409 37.728 47.035 36.82 2.514-0.071 5.056-0.374 7.593-0.9 107.283-22.117 176.579-127.447 154.49-234.774-2.47-12.032-9.497-22.419-19.821-29.267-8.13-5.308-17.548-7.934-27.168-7.592-2.491 0.133-5.029 0.419-7.57 0.952-12.128 2.457-22.555 9.535-29.34 19.871-6.782 10.292-9.127 22.604-6.636 34.71 5.71 27.779 0.291 56.145-15.38 79.891-15.623 23.702-39.471 39.934-67.22 45.652zM546.08 642.81c-24.952 5.174-41.06 29.643-35.937 54.577 4.592 22.274 24.362 37.79 47.017 36.91 2.487-0.113 5.052-0.404 7.587-0.941 86.828-17.906 161.524-68.625 210.44-142.894 48.842-74.22 65.902-162.906 47.99-249.734-2.49-12.106-9.546-22.532-19.871-29.28-8.125-5.358-17.476-7.984-27.14-7.602a46.904 46.904 0 0 0-7.62 0.951c-24.895 5.112-41.032 29.598-35.903 54.577 12.912 62.65 0.61 126.701-34.688 180.314-35.298 53.591-89.192 90.215-151.875 103.122z m0 0"  horiz-adv-x="1024" />

    
    <glyph glyph-name="zhiding" unicode="&#58888;" d="M636.415941 282.648185h170.861633c26.623987 0 34.71846 16.871611 17.676182 37.644173L545.377508 660.967243c-17.091039 20.821323-44.739026 20.796942-61.805685 0L204.068718 320.292358c-17.091039-20.821323-9.167234-37.644173 17.651801-37.644173h170.886014v-341.455075c0-26.867797 21.820942-48.639977 48.761882-48.639977h146.285644c27.111606 0 48.761882 21.77218 48.761882 48.639977V282.648185zM146.285888 859.428101A36.571411 36.571411 0 0 0 183.052347 895.999512h657.895306a36.571411 36.571411 0 1 0 0-73.142822H183.052347A36.571411 36.571411 0 0 0 146.285888 859.428101z"  horiz-adv-x="1024" />

    
    <glyph glyph-name="jia" unicode="&#59064;" d="M752 432H560V624h-96v-192H272v-96h192v-192h96V336h192z"  horiz-adv-x="1024" />

    
    <glyph glyph-name="love" unicode="&#58898;" d="M544 714.022c59.365 12.174 127.395-18.115 153.457-73.458 23.845-93.73-27.372-186.357-84.682-257.248 11.872 65.962 52.479 152.803 3.271 211.412-84.269 65.505-166.48-54.542-175.89-130.114-54.542 45.534-122.811 101.484-198.535 78.786-49.356-19.927-71.845-82.261-47.895-129.609 51.475-108.22 159.543-171.31 258.498-230.634-119.136 25.961-239.994 79.541-320.042 174.179-79.541 88.402-70.895 261.274 60.576 295.485 75.715 24.199 156.58-8.045 213.825-58.014 26.012 56.797 71.794 111.040 137.403 119.191zM934.428 634.275c10.668-99.872-107.517-123.968-182.233-123.421 5.228 18.007 25.911 25.513 36.978 39.952-36.476 0.199-55.898-35.019-81.457-51.315 0.599 35.773 14.093 71.146 43.868 92.621 51.723 44.026 126.084 11.022 182.838 42.167zM730.061 493.099c109.731 25.961 163.565-109.522 119.436-195.010-45.238-113.252-181.375-153.953-292.721-130.51-36.476-29.486-48.1-83.872-56.954-129.409-33.009 42.867-5.025 106.109 30.238 143.989-104.65 61.637 18.007 231.235 111.292 165.936 52.479-48.908-8.396-113.453-45.787-149.728 95.092-1.41 203.567 67.221 202.96 170.861-0.199 62.838-60.98 112.551-121.759 90.713 11.823 18.366 33.009 27.372 53.284 33.153zM579.171 307.145c-44.123-8.955-67.822-71.646-25.461-97.66 39.395-3.922 101.737 113.2 25.461 97.66z"  horiz-adv-x="1024" />

    
    <glyph glyph-name="weixin" unicode="&#58937;" d="M693.216 548.256c11.744 0 23.36-0.864 34.912-2.144C696.768 691.776 540.64 800 362.432 800 163.2 800 0 664.544 0 492.544c0-99.296 54.304-180.8 145.024-244.064l-36.256-108.736 126.688 63.36c45.344-8.96 81.696-18.144 126.944-18.144 11.36 0 22.656 0.544 33.824 1.44a268.832 268.832 0 0 0-11.168 75.744c0.032 157.952 136 286.112 308.16 286.112z m-194.88 98.016c27.296 0 45.376-17.92 45.376-45.12 0-27.104-18.08-45.248-45.376-45.248-27.168 0-54.432 18.144-54.432 45.248 0 27.232 27.264 45.12 54.432 45.12z m-253.632-90.336c-27.168 0-54.56 18.144-54.56 45.248 0 27.2 27.424 45.12 54.56 45.12 27.168 0 45.248-17.92 45.248-45.12-0.032-27.104-18.112-45.248-45.248-45.248zM1024 266.496c0 144.544-144.992 262.336-307.84 262.336-172.448 0-308.256-117.824-308.256-262.336 0-144.768 135.808-262.336 308.256-262.336 36.096 0 72.512 9.088 108.736 18.144L924.32-32l-27.264 90.336C969.792 112.768 1024 184.96 1024 266.496z m-407.808 45.248c-18.048 0-36.256 17.92-36.256 36.16 0 18.016 18.208 36.16 36.256 36.16 27.424 0 45.376-18.144 45.376-36.16 0-18.272-17.952-36.16-45.376-36.16z m199.36 0c-17.92 0-36 17.92-36 36.16 0 18.016 18.08 36.16 36 36.16 27.168 0 45.376-18.144 45.376-36.16 0-18.272-18.208-36.16-45.376-36.16z"  horiz-adv-x="1024" />

    
    <glyph glyph-name="zuanshi" unicode="&#58908;" d="M877.714286 859.428571l-29.257143 29.257143L548.571429 896H468.114286l-292.571429-14.628571-29.257143-29.257143L7.314286 610.742857v-36.571428L512-62.171429l512 621.714286V603.428571zM1024 618.057143L877.714286 859.428571l-109.714286-248.685714 256 7.314286c0-7.314286 0 0 0 0zM512 881.371429L321.828571 610.742857h380.342858zM204.8 896c-7.314286 0-21.942857-7.314286-29.257143-7.314286L292.571429 632.685714 475.428571 896H204.8zM826.514286 896H548.571429L731.428571 632.685714 848.457143 888.685714c-7.314286 7.314286-14.628571 7.314286-21.942857 7.314286zM307.2 574.171429L512-54.857143l197.485714 629.028572H307.2zM270.628571 574.171429H0s7.314286-7.314286 7.314286-14.628572l438.857143-555.885714-175.542858 570.514286zM7.314286 618.057143s0-7.314286 0 0l248.685714-7.314286L146.285714 852.114286 7.314286 618.057143zM753.371429 574.171429l-182.857143-585.142858L1024 559.542857c0 7.314286 7.314286 7.314286 7.314286 14.628572h-277.942857z"  horiz-adv-x="1031" />

    
    <glyph glyph-name="jiameng" unicode="&#59406;" d="M512 517.907692m-216.615385 0a216.615385 216.615385 0 1 1 433.23077 0 216.615385 216.615385 0 1 1-433.23077 0ZM681.353846 336.738462s-55.138462-74.830769-169.353846-74.83077-169.353846 74.830769-169.353846 74.83077-55.138462 39.384615-133.907692-39.384616C133.907692 222.523077 133.907692 108.307692 133.907692 108.307692v-94.523077c0-94.523077 133.907692-114.215385 133.907693-114.215384h492.307692s133.907692 19.692308 133.907692 114.215384V108.307692s0 114.215385-74.830769 189.046154c-78.769231 78.769231-137.846154 39.384615-137.846154 39.384616zM204.8 730.584615m-137.846154 0a137.846154 137.846154 0 1 1 275.692308 0 137.846154 137.846154 0 1 1-275.692308 0ZM303.261538 376.123077c-55.138462 55.138462-39.384615 169.353846-39.384615 169.353846s-15.753846-19.692308-55.138461-19.692308c-39.384615 0-94.523077 19.692308-114.215385 39.384616s-19.692308 39.384615-55.138462 0-39.384615-114.215385-39.384615-133.907693c0 0 0-39.384615 19.692308-94.523076s153.6-39.384615 153.6-39.384616c35.446154 98.461538 129.969231 78.769231 129.96923 78.769231zM819.2 730.584615m-137.846154 0a137.846154 137.846154 0 1 1 275.692308 0 137.846154 137.846154 0 1 1-275.692308 0ZM984.615385 565.169231c-39.384615 39.384615-39.384615 19.692308-55.138462 0-19.692308-19.692308-74.830769-39.384615-114.215385-39.384616s-55.138462 19.692308-55.138461 19.692308 19.692308-114.215385-39.384615-169.353846c0 0 94.523077 19.692308 133.907692-74.830769 0 0 133.907692-19.692308 153.6 39.384615 19.692308 55.138462 19.692308 94.523077 19.692308 94.523077-3.938462 15.753846-3.938462 90.584615-43.323077 129.969231z"  horiz-adv-x="1027" />

    
    <glyph glyph-name="icon1" unicode="&#58892;" d="M512 384m-512 0a512 512 0 1 1 1024 0 512 512 0 1 1-1024 0ZM723.478528 635.14624H300.581888c-41.571328 0.016384-75.285504-33.670144-75.301888-75.241472v-299.486208c0-41.554944 33.686528-75.241472 75.241472-75.241472H344.28416v-107.53536c-0.001024-8.334336 6.755328-15.090688 15.089664-15.091712 4.697088 0 9.127936 2.18624 11.982848 5.916672a710.26688 710.26688 0 0 0 52.243456 59.90912c12.61568 12.857344 24.748032 24.05376 36.187136 33.108992 19.424256 15.419392 35.6608 23.652352 46.166016 23.689216l1.821696-0.057344h6.639616l24.567808-0.060416c44.71808-0.04608 89.43616-0.047104 134.155264 0l36.066304 0.060416h14.215168c41.587712 0 75.301888 33.713152 75.301888 75.301888V559.904768c-0.001024 41.554944-33.687552 75.241472-75.242496 75.241472z m-202.66496-437.84192c0.12288 0.687104 0.192512 1.376256 0.228352 2.074624 0.063488-0.703488 0.013312-1.39264-0.228352-2.074624z m247.725056 63.11424c0-24.899584-20.191232-45.090816-45.151232-45.120512h-14.185472l-36.066304-0.029696c-52.867072-0.023552-105.734144-0.0256-158.601216 0l-6.489088 0.029696 0.14848-0.144384c-0.71168 0.08704-1.401856 0.2048-2.17088 0.2048-19.165184 0-40.593408-10.865664-64.979968-30.211072-12.524544-9.929728-25.563136-21.941248-38.99392-35.613696a740.856832 740.856832 0 0 1-27.585536-29.888512v80.592896c0 8.334336-6.756352 15.090688-15.090688 15.090688H300.57984c-24.886272-0.033792-45.087744 20.113408-45.120512 44.99968V559.904768c0 24.899584 20.191232 45.060096 45.120512 45.060096h422.836224c24.92928 0 45.120512-20.160512 45.120512-45.060096v-299.486208zM611.209216 520.40192c-13.672448-0.46592-24.648704-11.442176-25.114624-25.114624-0.489472-14.359552 10.755072-26.397696 25.114624-26.887168 14.359552-0.489472 26.397696 10.755072 26.887168 25.114624 0.02048 0.590848 0.02048 1.181696 0 1.772544-0.489472 14.359552-12.527616 25.604096-26.887168 25.114624zM598.437888 412.893184c-8.334336 0-15.090688-6.756352-15.090688-15.090688 0-39.404544-31.94368-71.348224-71.348224-71.348224s-71.348224 31.94368-71.348224 71.348224c0 8.334336-6.756352 15.090688-15.090688 15.090688s-15.090688-6.756352-15.090688-15.090688c0.016384-56.060928 45.467648-101.49888 101.5296-101.49888s101.512192 45.437952 101.5296 101.49888c0 8.334336-6.756352 15.090688-15.090688 15.090688zM440.530944 492.781568c0.039936 0.83456 0.039936 1.671168 0 2.505728-0.489472 14.359552-12.526592 25.604096-26.887168 25.114624-13.673472-0.46592-24.648704-11.442176-25.114624-25.114624h0.029696c-0.692224-14.35136 10.381312-26.5472 24.733696-27.2384 14.35136-0.692224 26.546176 10.381312 27.2384 24.732672z"  horiz-adv-x="1024" />

    
    <glyph glyph-name="zhifu" unicode="&#58887;" d="M777.216 655.872h-322.048c25.088 12.8 165.888 86.528 177.152 92.672 38.4 21.504 80.896 19.968 103.936-15.36l40.96-77.312z m-103.424-252.416c-32.256-32.256 16.896-83.456 49.664-50.688 32.768 32.256-16.896 83.456-49.664 50.688z m-300.544-5.12c-37.376 11.776-51.712 24.576-51.712 50.176 2.048 26.624 11.776 36.864 36.864 38.912 29.184 0 43.52-12.8 43.52-46.592h44.544c-2.048 49.664-25.088 78.336-66.048 83.968v32.768h-31.232v-32.768c-46.592-4.096-70.656-36.864-71.68-78.336 0-34.816 24.064-71.68 75.264-84.992 47.104-11.776 52.736-30.72 52.736-51.2-2.048-28.672-12.288-32.256-45.568-34.304-31.232 2.048-39.936 11.264-44.032 40.448h-45.056c2.048-53.248 25.088-79.872 73.728-83.968v-32.768h33.28v32.256c46.592 4.096 75.264 31.232 75.264 82.432-3.584 36.352-19.968 64-79.872 83.968zM1024 384c0-282.112-229.888-512-512-512s-512 229.888-512 512 229.888 512 512 512 512-229.888 512-512z m-36.352 0c0 262.144-213.504 475.648-475.648 475.648s-475.648-213.504-475.648-475.648 213.504-475.648 475.648-475.648 475.648 213.504 475.648 475.648z m-135.168-73.728v-135.68c0-37.376-29.184-68.096-67.072-68.096H235.52c-36.864 0-71.168 29.696-71.168 68.096v372.736c0 37.888 30.72 68.096 68.608 68.096h549.888c37.376 0 68.608-30.208 68.608-68.096v-101.376h-172.032c-89.6 0-88.064-135.68 0-135.68h173.056z m-306.688 68.096c0 98.304-80.384 178.688-180.224 178.688s-180.224-80.384-180.224-178.688 80.384-178.688 180.224-178.688 180.224 80.384 180.224 178.688z"  horiz-adv-x="1024" />

    
    <glyph glyph-name="arrow-up" unicode="&#58893;" d="M297.2440000000001 457.14200000000005l419.644-0.15600000000020486-210.02800000000005-239.55099999999993-209.6169999999999 239.70700000000008z"  horiz-adv-x="1024" />

    
    <glyph glyph-name="kefu" unicode="&#59051;" d="M373.248 303.616c-34.304 0-61.44-27.648-61.44-61.44 0-34.304 27.648-61.44 61.44-61.44 26.112 0 48.128 16.384 56.832 39.424l-44.544 22.528 44.544 22.528c-8.704 22.016-30.72 38.4-56.832 38.4z m287.232-123.392c26.112 0 48.128 16.384 56.832 39.424l-45.056 22.528 45.056 22.528c-8.704 23.04-31.232 39.424-56.832 39.424-34.304 0-61.44-27.648-61.44-61.44 0-34.816 27.648-62.464 61.44-62.464z m279.04 144.896c0 9.728 0.512 19.456 0 29.184 2.56 133.632-37.376 246.272-115.2 325.632-37.376 37.888-82.432 67.072-134.144 87.04C682.496 839.168 604.16 896 508.928 896S335.36 839.168 327.168 766.976c-51.712-19.968-96.768-49.152-134.144-87.04-77.824-79.36-117.76-192-115.2-325.12v-35.84c-19.968-20.48-35.84-51.2-24.576-94.208 8.704-32.256 32.256-55.808 61.44-66.56 14.848-9.216 32.256-14.336 50.688-14.336 36.864-161.792 171.52-271.872 347.136-271.872 175.104 0 309.76 110.08 346.624 272.384 1.024 0 2.56-0.512 3.584-0.512 23.04 0 44.544 8.192 61.44 21.504 22.016 12.288 38.912 33.28 46.08 59.392 12.8 47.616-7.68 79.872-30.72 100.352zM508.928 863.232c71.168 0 130.56-35.84 145.92-83.968-44.032 12.8-92.672 18.944-144.384 18.944h-2.56c-51.712 0-100.352-6.656-144.384-18.944 14.848 47.616 74.24 83.968 145.408 83.968z m4.608-958.464h-1.024c-190.464 0-323.584 136.192-323.584 331.776l-0.512 18.432c0 8.192 1.024 30.208 2.56 51.712 103.936 36.864 146.944 142.336 148.992 146.944 3.584 8.192-0.512 17.92-9.216 21.504-8.704 3.584-17.92-0.512-21.504-9.216-0.512-1.024-40.96-98.816-133.12-129.536-2.56 2.048-20.992 20.48-45.568 14.336v4.096c-3.072 119.808 31.744 219.648 99.84 288.768 65.536 67.072 161.28 102.4 276.992 102.4h1.024l0.512-19.456h1.536l-0.512 19.456c115.712 0 211.456-35.328 276.992-102.4 68.096-69.12 102.4-168.96 100.352-289.28v-2.56c-34.816 0-40.96-30.72-40.448-32.256 0-0.512-0.512-1.024-0.512-2.048-1.024-4.608-2.048-17.408-2.56-33.28l-1.536-1.536c-50.176 49.664-115.712 63.488-179.2 76.8-33.28 7.168-67.584 14.336-99.84 26.624-115.2 43.52-178.688 147.968-179.2 148.992-4.608 7.68-14.848 10.24-22.528 5.632-7.68-4.608-10.24-14.848-5.632-22.528 2.56-4.608 69.632-115.2 195.584-162.816 34.816-13.312 70.656-20.992 104.96-28.16 69.12-14.848 134.656-28.672 179.2-86.016l1.536-1.536v-3.072c0-21.504-1.536-42.496-4.608-62.464-57.344-91.648-152.064-151.04-269.824-164.352-8.704 11.776-26.624 19.456-47.104 19.456-29.184 0-53.248-15.872-53.248-35.328 0-19.456 24.064-35.328 53.248-35.328 26.112 0 48.128 12.8 52.224 29.696 37.888 4.608 74.24 13.312 108.032 27.136 48.64 19.456 91.136 48.128 126.976 84.48 5.632 5.632 11.264 11.776 16.384 17.92-43.52-129.536-157.184-212.992-305.664-212.992z"  horiz-adv-x="1024" />

    
    <glyph glyph-name="zuanshi1" unicode="&#59147;" d="M219.37152 707.01056c9.56416-5.39648 8.69376-7.51616-1.92512-4.73088l-76.50304 20.11136c-10.61888 2.79552-23.94112-2.6112-29.61408-12.02176L71.19872 643.7888c-5.67296-9.40032-7.90528-8.43776-4.97664 2.14016l20.75648 75.03872c2.92864 10.57792-2.44736 23.72608-11.95008 29.22496L6.5536 789.84192c-9.50272 5.49888-8.54016 7.89504 2.12992 5.3248l75.58144-18.23744c10.67008-2.57024 24.17664 2.93888 30.0032 12.2368l40.28416 64.256c5.8368 9.30816 8.09984 8.30464 5.03808-2.2528l-21.99552-75.71456c-3.06176-10.53696 2.2528-23.58272 11.81696-28.96896l69.95968-39.4752zM840.18176-65.64864c2.11968-8.54016 0.37888-9.216-3.88096-1.536l-13.70112 24.6784c-4.25984 7.68-14.75584 12.38016-23.31648 10.45504l-28.11904-6.33856c-8.58112-1.92512-9.23648-0.14336-1.4848 3.98336l25.51808 13.55776c7.76192 4.11648 12.46208 14.47936 10.4448 23.04l-6.52288 27.46368c-2.01728 8.56064-0.06144 9.33888 4.36224 1.7408l13.84448-23.79776c4.44416-7.59808 15.08352-12.3392 23.68512-10.55744l27.25888 5.66272c8.6016 1.78176 9.25696-0.04096 1.44384-4.07552l-26.14272-13.45536c-7.82336-4.02432-12.46208-14.2848-10.3424-22.80448l6.95296-28.01664zM1023.49824 504.96512c-4.17792 13.94688-18.7392 39.46496-32.33792 56.68864l-101.95968 129.11616c-13.6192 17.22368-36.13696 39.19872-50.06336 48.82432-13.93664 9.61536-71.40352 17.47968-93.35808 17.47968H412.12928c-21.9648 0-54.39488-3.44064-72.06912-7.65952-17.68448-4.21888-59.94496-40.05888-74.24-56.71936L151.73632 559.73888c-14.29504-16.66048-29.73696-41.49248-34.32448-55.17312s18.15552-58.14272 31.6928-75.42784l355.9936-454.74816c13.5168-17.28512 36.79232-44.61568 51.67104-60.76416 0 0 5.03808-5.43744 13.49632-5.43744 8.4992 0 14.60224 6.16448 14.60224 6.16448 15.4624 15.57504 39.15776 42.51648 52.64384 59.84256l353.86368 454.656c13.48608 17.33632 36.28032 62.16704 32.12288 76.11392z m-136.31488 46.88896c13.59872-17.24416 6.77888-31.34464-15.17568-31.34464H743.936c-21.9648 0-38.0416 1.91488-35.7376 4.2496 2.304 2.33472 16.78336 26.05056 27.76064 45.056l37.03808 64.11264c10.99776 19.01568 21.46304 33.30048 23.25504 31.744 1.80224-1.54624 16.78336-19.94752 30.40256-37.18144l60.52864-76.63616z m-205.54752 6.01088c-7.49568 5.30432-22.1184 25.48736-32.48128 44.8512l-26.12224 48.8448-18.92352 35.42016c-0.06144 0.1024 17.77664 0.39936 39.72096 0.39936h56.13568c21.9648 0 44.73856-0.59392 50.61632-1.30048 5.89824-0.7168 12.17536-21.10464 1.1776-40.11008l-25.72288-44.51328c-10.9568-19.01568-36.87424-48.90624-44.40064-43.59168zM404.9408 686.39744c5.16096 0.54272 27.3408 0.9728 49.29536 0.9728h59.8016c21.97504 0 39.89504-0.07168 39.85408-0.1536l-20.16256-34.8672-28.99968-50.19648c-10.99776-19.00544-26.2144-38.66624-33.82272-43.68384-7.59808-5.00736-32.36864 25.55904-42.72128 44.93312l-23.28576 43.55072c-10.33216 19.36384-5.10976 38.92224 0.04096 39.44448z m86.03648-156.71296c2.10944 3.06176 12.82048 21.12512 23.808 40.1408l43.61216 75.48928c10.97728 18.9952 28.43648 18.71872 38.79936-0.64512l39.13728-73.22624c10.36288-19.36384 20.5824-37.888 22.6816-41.17504 2.11968-3.28704-9.65632-9.74848-31.62112-9.74848H522.76224c-21.95456 0-33.8944 6.0928-31.78496 9.1648z m-165.94944 100.53632c14.29504 16.67072 27.53536 31.82592 29.41952 33.6896 1.87392 1.87392 16.32256-9.40032 26.66496-28.76416l34.06848-63.71328c10.35264-19.36384 20.56192-37.888 22.67136-41.17504 2.12992-3.28704-9.65632-9.74848-31.62112-9.74848H270.81728c-21.95456 0-28.22144 13.62944-13.9264 30.28992l68.13696 79.42144z m371.41504-465.21344c-13.47584-17.33632-19.49696-14.26432-13.3632 6.81984l47.38048 162.64192c6.144 21.07392 1.46432 41.0624-10.40384 44.41088-11.8784 3.34848-26.624-11.1616-32.75776-32.24576l-78.5408-269.58848c-6.144-21.08416-20.96128-47.21664-32.9216-58.08128h-10.36288c-10.86464 8.54016-24.7808 32.79872-30.9248 53.88288l-79.74912 273.78688c-6.15424 21.08416-20.86912 35.59424-32.74752 32.24576-11.85792-3.34848-16.55808-23.3472-10.41408-44.41088L460.8 165.76512c6.144-21.08416 0.17408-24.1152-13.27104-6.73792L243.72224 422.32832c-13.44512 17.36704-26.34752 35.1744-28.69248 39.55712-2.34496 4.39296-4.20864 17.09056-3.84 17.08032 0.36864-0.01024 19.31264-0.02048 41.27744-0.02048H888.1152l40.6016 0.01024c0.3584 0 0.5632-4.08576-0.3584-9.10336-0.94208-5.0176-18.23744-30.28992-31.72352-47.616l-200.192-257.2288z"  horiz-adv-x="1024" />

    
    <glyph glyph-name="sanweisanjiaoxing" unicode="&#58882;" d="M952.69888 615.65952l-68.3008 118.35392-0.02048 0.03072h-0.08192L565.1968 181.31968l-68.34176 118.36416-182.40512 315.91424-68.37248 118.44608H109.312l0.03072-0.01024 68.352-118.43584L428.46208 181.248l68.38272-118.4256 0.01024-0.02048 68.34176-118.35392 68.34176 118.3744h0.06144l-0.02048 0.06144zM884.3776 734.04416h-0.08192l0.02048 0.06144zM816.22016 615.95648l-0.18432-0.29696-68.21888-118.14912H246.10816L428.5952 181.4528l68.38272-118.45632 68.28032-118.26176H428.47232l-68.28032 118.26176-250.84928 434.51392h-0.06144l0.02048 0.0512-68.12672 118.03648-0.11264 0.18432-0.1024 0.17408zM747.70432 734.04416h136.59136L565.1968 181.31968l-68.34176 118.36416 114.2272 197.82656 68.17792 118.08768H40.96l0.1024 0.18432 0.11264 0.17408 68.16768 118.07744v0.01024h638.30016l0.02048 0.06144zM884.39808 734.04416v-0.03072l-0.02048 0.03072z"  horiz-adv-x="1024" />

    


  </font>
</defs>
</svg>
